<svg width="466" height="71" viewBox="0 0 466 71" fill="none" xmlns="http://www.w3.org/2000/svg">
<path d="M20.057 10.1657C17.3036 18.3884 15.6353 27.9938 23.8074 35.9586C23.8074 35.9586 12.4128 35.9201 0.501845 33L0 33.3004C19.7125 39.4965 36.2463 52.827 46.5502 70.2519C46.7461 70.5832 47.2284 70.5834 47.4243 70.2521C52.7284 61.2823 59.6834 53.3974 67.873 47.0122C46.5908 21.2684 27.0984 12.618 20.057 10.1657Z" fill="#008758"/>
<path d="M85.8854 1.24449C87.5888 0.5 89.8303 0 89.8524 2.84376V34.3695C89.8524 34.5782 89.7225 34.7649 89.5273 34.8387C71.7796 41.5505 56.9431 54.154 47.4239 70.2519C47.228 70.5832 46.7457 70.5834 46.5498 70.2521C40.8895 60.6799 33.3493 52.3434 24.4348 45.7463C46.562 19.998 75.4587 5.80143 85.8854 1.24449Z" fill="#00B476"/>
<path d="M20.0638 10.15L0 33.3C2.10776 34.1 16.5609 36.5 23.9935 35.9587C15.5958 27.9903 18.508 15.05 20.0638 10.15Z" fill="#00B476"/>
<path d="M121.522 19.3468H128.84V52.6532H121.522V19.3468Z" fill="white"/>
<path d="M154.262 19.3468H164.207L178.328 42.4919H178.422V19.3468H185.74V52.6532H176.17L161.674 28.9435H161.58V52.6532H154.262V19.3468Z" fill="white"/>
<path d="M207.997 19.3468H216.347L224.557 41.1747H224.651L233.001 19.3468H240.835L227.137 52.6532H221.273L207.997 19.3468Z" fill="white"/>
<path d="M261.294 36C261.294 33.3342 261.732 30.9194 262.607 28.7554C263.514 26.5914 264.765 24.7567 266.36 23.2513C267.955 21.7146 269.848 20.5385 272.037 19.7231C274.226 18.9077 276.619 18.5 279.214 18.5C281.81 18.5 284.203 18.9077 286.392 19.7231C288.581 20.5385 290.473 21.7146 292.068 23.2513C293.663 24.7567 294.899 26.5914 295.774 28.7554C296.681 30.9194 297.135 33.3342 297.135 36C297.135 38.6658 296.681 41.0806 295.774 43.2446C294.899 45.4086 293.663 47.259 292.068 48.7957C290.473 50.3011 288.581 51.4615 286.392 52.2769C284.203 53.0923 281.81 53.5 279.214 53.5C276.619 53.5 274.226 53.0923 272.037 52.2769C269.848 51.4615 267.955 50.3011 266.36 48.7957C264.765 47.259 263.514 45.4086 262.607 43.2446C261.732 41.0806 261.294 38.6658 261.294 36ZM268.894 36C268.894 37.5681 269.128 39.0108 269.597 40.328C270.098 41.6138 270.801 42.7428 271.708 43.7151C272.615 44.6559 273.694 45.3929 274.945 45.9261C276.228 46.4592 277.651 46.7258 279.214 46.7258C280.778 46.7258 282.186 46.4592 283.437 45.9261C284.719 45.3929 285.813 44.6559 286.72 43.7151C287.627 42.7428 288.315 41.6138 288.785 40.328C289.285 39.0108 289.535 37.5681 289.535 36C289.535 34.4633 289.285 33.0363 288.785 31.7191C288.315 30.4019 287.627 29.2728 286.72 28.332C285.813 27.3598 284.719 26.6071 283.437 26.0739C282.186 25.5408 280.778 25.2742 279.214 25.2742C277.651 25.2742 276.228 25.5408 274.945 26.0739C273.694 26.6071 272.615 27.3598 271.708 28.332C270.801 29.2728 270.098 30.4019 269.597 31.7191C269.128 33.0363 268.894 34.4633 268.894 36Z" fill="white"/>
<path d="M321.155 19.3468H343.439V26.121H328.474V32.8952H342.313V39.6694H328.474V52.6532H321.155V19.3468Z" fill="white"/>
<path d="M365.665 36C365.665 33.3342 366.102 30.9194 366.978 28.7554C367.885 26.5914 369.136 24.7567 370.731 23.2513C372.326 21.7146 374.218 20.5385 376.408 19.7231C378.597 18.9077 380.989 18.5 383.585 18.5C386.181 18.5 388.573 18.9077 390.763 19.7231C392.952 20.5385 394.844 21.7146 396.439 23.2513C398.034 24.7567 399.269 26.5914 400.145 28.7554C401.052 30.9194 401.506 33.3342 401.506 36C401.506 38.6658 401.052 41.0806 400.145 43.2446C399.269 45.4086 398.034 47.259 396.439 48.7957C394.844 50.3011 392.952 51.4615 390.763 52.2769C388.573 53.0923 386.181 53.5 383.585 53.5C380.989 53.5 378.597 53.0923 376.408 52.2769C374.218 51.4615 372.326 50.3011 370.731 48.7957C369.136 47.259 367.885 45.4086 366.978 43.2446C366.102 41.0806 365.665 38.6658 365.665 36ZM373.264 36C373.264 37.5681 373.499 39.0108 373.968 40.328C374.468 41.6138 375.172 42.7428 376.079 43.7151C376.986 44.6559 378.065 45.3929 379.316 45.9261C380.598 46.4592 382.021 46.7258 383.585 46.7258C385.149 46.7258 386.556 46.4592 387.807 45.9261C389.089 45.3929 390.184 44.6559 391.091 43.7151C391.998 42.7428 392.686 41.6138 393.155 40.328C393.656 39.0108 393.906 37.5681 393.906 36C393.906 34.4633 393.656 33.0363 393.155 31.7191C392.686 30.4019 391.998 29.2728 391.091 28.332C390.184 27.3598 389.089 26.6071 387.807 26.0739C386.556 25.5408 385.149 25.2742 383.585 25.2742C382.021 25.2742 380.598 25.5408 379.316 26.0739C378.065 26.6071 376.986 27.3598 376.079 28.332C375.172 29.2728 374.468 30.4019 373.968 31.7191C373.499 33.0363 373.264 34.4633 373.264 36Z" fill="white"/>
<path d="M433.501 35.2473L422.524 19.3468H431.719L438.802 31.0134L445.605 19.3468H454.471L443.728 35.1062L455.738 52.6532H446.543L438.427 39.246L430.546 52.6532H421.867L433.501 35.2473Z" fill="white"/>
</svg>
